#!OML:ASF C:\ViconDB\ViconDB\414\Spring2016\042216\male.ASF
:FULLY-SPECIFIED
:DEGREES
723
root 45.0086 17.7698 12.1535 -32.7545 89.3743 -33.2929
lowerback -3.5429 -1.14453 4.85466
upperback -0.781228 -1.68421 -0.798643
thorax 1.01763 -0.827845 -3.61771
lowerneck 2.33423 17.5525 3.4494
upperneck 5.93369 23.8494 -3.80627
head 2.45359 11.9432 -1.21819
rclavicle -6.90777e-015 1.02871e-014
rhumerus -32.0717 -6.30966 -92.8922
rradius 26.3385
rwrist 33.6112
rhand 17.4875 -15.7529
rfingers 7.12502
rthumb 42.1877 -40.2797
lclavicle -6.90777e-015 1.02871e-014
lhumerus -35.1713 10.6377 88.4321
lradius 29.53
lwrist -19.6304
lhand -6.63512 13.0705
lfingers 7.12502
lthumb 19.2217 42.1406
rfemur -7.41705 6.2195 21.3176
rtibia 24.5713
rfoot -18.8129 -8.09625
rtoes -8.66406
lfemur -6.15655 -0.804794 -20.3048
ltibia 24.7397
lfoot -26.5816 7.52478
ltoes -10.1507
724
root 45.0053 17.7708 12.1543 -33.7762 89.4261 -34.3509
lowerback -3.57509 -1.12072 4.84213
upperback -0.76806 -1.65397 -0.802939
thorax 1.05244 -0.811597 -3.61502
lowerneck 2.33889 17.7237 3.42669
upperneck 5.8966 24.0805 -3.84703
head 2.45304 12.0574 -1.21955
rclavicle -2.49102e-015 4.91992e-015
rhumerus -32.1212 -6.2598 -92.9412
rradius 26.3053
rwrist 33.4757
rhand 17.2448 -15.9491
rfingers 7.12502
rthumb 41.9603 -40.5524
lclavicle -2.49102e-015 4.91992e-015
lhumerus -35.0073 10.6559 88.4619
lradius 29.5944
lwrist -19.4808
lhand -6.73448 12.9367
lfingers 7.12502
lthumb 19.1262 42.0163
rfemur -7.53649 6.43772 21.3119
rtibia 24.7269
rfoot -18.8933 -8.34425
rtoes -8.73687
lfemur -6.16491 -0.726423 -20.3078
ltibia 24.6007
lfoot -26.5877 7.34454
ltoes -9.86633
725
root 44.9962 17.7745 12.1339 41.744 89.4777 40.9575
lowerback -3.70008 -1.08535 4.53569
upperback -0.841737 -1.5956 -1.07556
thorax 1.05289 -0.784248 -3.72431
lowerneck 2.36701 17.8083 3.41684
upperneck 5.84732 24.1944 -3.87808
head 2.43976 12.1142 -1.2278
rclavicle -5.02863e-015 6.21202e-016
rhumerus -32.1778 -6.25033 -92.9851
rradius 26.2948
rwrist 33.1615
rhand 17.125 -16.252
rfingers 7.12502
rthumb 41.848 -40.8927
lclavicle -5.02863e-015 6.21202e-016
lhumerus -34.8608 10.5732 88.5062
lradius 29.6641
lwrist -19.3317
lhand -6.72141 12.947
lfingers 7.12502
lthumb 19.1387 42.0254
rfemur -7.91786 5.52513 20.3967
rtibia 24.8729
rfoot -18.892 -7.4472
rtoes -8.65014
lfemur -6.36213 -0.652972 -21.1055
ltibia 24.4647
lfoot -26.3735 7.26939
ltoes -10.1369
726
root 44.9899 17.7776 12.1266 56.2388 89.4373 55.3785
lowerback -3.71875 -1.0463 4.57551
upperback -0.866212 -1.5441 -1.15642
thorax 1.03977 -0.759119 -3.82853
lowerneck 2.41341 17.8432 3.29718
upperneck 5.74083 24.2365 -3.90199
head 2.38576 12.1345 -1.23035
rclavicle 1.98288e-014 3.40419e-015
rhumerus -32.2374 -6.29886 -92.9806
rradius 26.2073
rwrist 33.2764
rhand 16.8494 -16.2676
rfingers 7.12502
rthumb 41.5895 -40.9936
lclavicle 1.98288e-014 3.40419e-015
lhumerus -34.7242 10.4336 88.6005
lradius 29.7647
lwrist -19.1508
lhand -6.66877 12.8802
lfingers 7.12502
lthumb 19.1894 41.9535
rfemur -8.0933 5.32198 20.2057
rtibia 24.9939
rfoot -18.9319 -7.24222
rtoes -8.31819
lfemur -6.43075 -0.616805 -21.2522
ltibia 24.3617
lfoot -26.2969 7.15507
ltoes -10.1836
727
root 44.9858 17.7792 12.1305 56.293 89.5753 55.421
lowerback -3.67924 -0.998987 4.7092
upperback -0.872545 -1.48415 -1.15898
thorax 1.01351 -0.729745 -3.90317
lowerneck 2.4486 17.8587 3.33536
upperneck 5.66385 24.2605 -3.9899
head 2.37275 12.1469 -1.26568
rclavicle 5.55199e-015 -1.13804e-014
rhumerus -32.3022 -6.35094 -93.0007
rradius 26.2198
rwrist 33.0944
rhand 16.7126 -16.4297
rfingers 7.12502
rthumb 41.4612 -41.1978
lclavicle 5.55199e-015 -1.13804e-014
lhumerus -34.606 10.3119 88.6548
lradius 29.8582
lwrist -19.0583
lhand -6.74199 12.8913
lfingers 7.12502
lthumb 19.119 41.9716
rfemur -8.15942 5.66322 20.3588
rtibia 25.1008
rfoot -19.0252 -7.60353
rtoes -8.1442
lfemur -6.45105 -0.644315 -21.0975
ltibia 24.2682
lfoot -26.2575 6.99557
ltoes -9.97122
728
root 44.9827 17.7778 12.1347 60.6113 89.6744 59.7621
lowerback -3.54691 -0.933187 4.81455
upperback -0.932946 -1.39208 -1.1916
thorax 0.883077 -0.688183 -3.98896
lowerneck 2.57863 17.8491 3.40361
upperneck 5.58146 24.2522 -4.05197
head 2.34097 12.1462 -1.30858
rclavicle -4.05383e-015 9.37239e-015
rhumerus -32.478 -6.55821 -92.9766
rradius 26.2269
rwrist 33.0648
rhand 16.8461 -16.4909
rfingers 7.12502
rthumb 41.5865 -41.218
lclavicle -4.05383e-015 9.37239e-015
lhumerus -34.6318 10.1776 88.6984
lradius 29.9965
lwrist -18.9702
lhand -7.13658 13.258
lfingers 7.12502
lthumb 18.7395 42.3753
rfemur -8.10292 5.70982 20.4768
rtibia 25.0676
rfoot -19.01 -7.799
rtoes -8.41395
lfemur -6.48059 -0.568268 -20.9994
ltibia 24.3091
lfoot -26.2616 6.86715
ltoes -10.0367
729
root 44.9788 17.7779 12.1351 76.5956 89.6416 75.7426
lowerback -3.45464 -0.860287 4.86299
upperback -0.981053 -1.28986 -1.28067
thorax 0.78923 -0.640519 -4.1023
lowerneck 2.61959 17.7973 3.35489
upperneck 5.53706 24.1804 -4.04057
head 2.30815 12.1111 -1.30984
rclavicle -3.30798e-014 1.61513e-016
rhumerus -32.5889 -6.76076 -92.9359
rradius 26.1902
rwrist 33.1505
rhand 17.0085 -16.3603
rfingers 7.12502
rthumb 41.7388 -41.0372
lclavicle -3.30798e-014 1.61513e-016
lhumerus -34.6094 9.99438 88.7206
lradius 30.0914
lwrist -19.0402
lhand -7.03604 13.2275
lfingers 7.12502
lthumb 18.8362 42.3355
rfemur -8.06387 5.63231 20.4128
rtibia 24.9915
rfoot -18.9572 -7.85266
rtoes -8.76276
lfemur -6.54591 -0.589241 -21.0692
ltibia 24.379
lfoot -26.3072 6.81672
ltoes -10.1173
730
root 44.9757 17.7795 12.1352 88.1836 89.6857 87.3374
lowerback -3.54415 -0.849671 4.85187
upperback -0.878575 -1.28294 -1.24061
thorax 0.946994 -0.630952 -4.05743
lowerneck 2.48336 17.7712 3.34419
upperneck 5.5042 24.1569 -4.27379
head 2.35122 12.0937 -1.36173
rclavicle -2.22973e-015 -7.9576e-015
rhumerus -32.4298 -6.79184 -92.8597
rradius 26.109
rwrist 33.2933
rhand 17.6184 -16.2828
rfingers 7.12502
rthumb 42.3103 -40.768
lclavicle -2.22973e-015 -7.9576e-015
lhumerus -34.4437 9.97747 88.8787
lradius 30.2766
lwrist -18.9154
lhand -7.13304 13.4358
lfingers 7.12502
lthumb 18.7429 42.5528
rfemur -8.03331 5.55794 20.4518
rtibia 24.9406
rfoot -18.9252 -7.86979
rtoes -8.7738
lfemur -6.60741 -0.536008 -21.0253
ltibia 24.4311
lfoot -26.3484 6.68716
ltoes -9.93117
731
root 44.9734 17.7805 12.1354 101.574 89.7495 100.739
lowerback -3.56553 -0.849116 4.86485
upperback -0.832899 -1.2855 -1.20147
thorax 1.00644 -0.629814 -4.02531
lowerneck 2.37305 17.7483 3.42819
upperneck 5.5643 24.1453 -4.47941
head 2.43032 12.084 -1.41356
rclavicle 3.46922e-015 8.7838e-015
rhumerus -32.3667 -6.823 -92.8103
rradius 26.0287
rwrist 33.4371
rhand 17.9407 -16.2619
rfingers 7.12502
rthumb 42.612 -40.6436
lclavicle 3.46922e-015 8.7838e-015
lhumerus -34.3717 9.94243 88.9999
lradius 30.4119
lwrist -18.612
lhand -7.31599 13.5998
lfingers 7.12502
lthumb 18.5669 42.7337
rfemur -7.99628 5.74916 20.5325
rtibia 24.8855
rfoot -18.9352 -8.05572
rtoes -8.61431
lfemur -6.63028 -0.679586 -20.955
ltibia 24.4716
lfoot -26.3006 6.75785
ltoes -10.0529
